<svg xmlns="http://www.w3.org/2000/svg" xml:space="preserve" width="256" height="256" version="1.0">
  <g fill="#4a4a4a">
    <path d="M94.01 50.01c53.79-9.86 113.66 5.36 150.92 46.35l-21.27 20.55c-28.13-26.92-64.73-39.94-103.63-39.43zM155.01 111.01c18.13 4.71 34.71 14.34 47.97 27.49l-11.33 10.42zM53.01 139.98c-1.43-2.37 14.71-13.87 17.08-15.4 9.15-5.88 19.32-10.5 29.91-13.08L76.51 88.29c-16.54 6.41-31.22 16.7-44.15 28.63L11.44 96.99c-.98-1.21 0-1.66.5-2.52 1.35-2.33 9.94-9.33 12.59-11.44 8.92-7.09 19.03-12.23 28.45-18.53l-31.96-32 14.34-13.42 180.56 181.28-13.42 13.62-76.2-75.82c-19.1 1.03-37.52 7.95-50.94 21.76z"/>
    <path d="M119.76 168.26c15.59-2.14 28.59 2.01 40.24 12.28l-31.64 32.39-32.32-31.5c5.12-6.23 15.79-12.08 23.72-13.17"/>
  </g>
</svg>
