<svg xmlns="http://www.w3.org/2000/svg" xml:space="preserve" width="256" height="256" version="1.0">
  <g fill="#969696">
    <path d="M121.79 47.29c43.81-1.78 94.41 16.39 123.13 49.07l-21.29 20.56c-52.25-52.77-139.08-51.22-192 0L11.07 96.36c26.66-30.29 70.47-46.94 110.72-49.07"/>
    <path d="M115.79 108.29c32.94-3.17 63.57 7.37 87.19 30.21l-21.48 21.46c-29.56-29.2-77.4-29.23-107 0L53.02 138.5c16.77-15.88 39.45-27.96 62.77-30.21M121.78 168.28c14.28-1.73 28.35 2.69 38.2 13.22l-31.61 31.43-32.35-31.43c6.45-6.9 16.34-12.08 25.76-13.22"/>
  </g>
</svg>
